<mxfile host="drawio-plugin" modified="2024-01-26T16:45:50.237Z" agent="5.0 (Windows NT 6.2; Win64; x64) AppleWebKit/537.36 (KHTML, like Gecko) Chrome/104.0.5112.102 Safari/537.36" version="20.5.3" etag="mesmaiBYrKTOcCFvhzTD" type="embed"><diagram id="xl-x2rJb9L7iphe4QAkj" name="Page-1"><mxGraphModel dx="649" dy="963" grid="0" gridSize="10" guides="1" tooltips="1" connect="1" arrows="1" fold="1" page="0" pageScale="1" pageWidth="850" pageHeight="1100" math="0" shadow="0"><root><mxCell id="0"/><mxCell id="1" parent="0"/><mxCell id="5" value="14" style="rounded=1;whiteSpace=wrap;html=1;fillColor=#4D4D4D;" vertex="1" parent="1"><mxGeometry x="431" y="-308" width="60" height="51" as="geometry"/></mxCell><mxCell id="6" value="13" style="rounded=1;whiteSpace=wrap;html=1;fillColor=#4D4D4D;" vertex="1" parent="1"><mxGeometry x="783" y="3" width="60" height="51" as="geometry"/></mxCell><mxCell id="7" value="58" style="rounded=1;whiteSpace=wrap;html=1;fillColor=#4D4D4D;" vertex="1" parent="1"><mxGeometry x="664" width="60" height="51" as="geometry"/></mxCell><mxCell id="8" value="26" style="rounded=1;whiteSpace=wrap;html=1;fillColor=#4D4D4D;" vertex="1" parent="1"><mxGeometry x="506" y="-104" width="60" height="51" as="geometry"/></mxCell><mxCell id="9" value="59" style="rounded=1;whiteSpace=wrap;html=1;fillColor=#4D4D4D;" vertex="1" parent="1"><mxGeometry x="564" y="3" width="60" height="51" as="geometry"/></mxCell><mxCell id="10" value="32" style="rounded=1;whiteSpace=wrap;html=1;fillColor=#4D4D4D;" vertex="1" parent="1"><mxGeometry x="437" width="60" height="51" as="geometry"/></mxCell><mxCell id="11" value="61" style="rounded=1;whiteSpace=wrap;html=1;fillColor=#4D4D4D;" vertex="1" parent="1"><mxGeometry x="186" y="-181" width="60" height="51" as="geometry"/></mxCell><mxCell id="12" value="74" style="rounded=1;whiteSpace=wrap;html=1;fillColor=#4D4D4D;" vertex="1" parent="1"><mxGeometry x="282" y="-102" width="60" height="51" as="geometry"/></mxCell><mxCell id="13" value="24" style="rounded=1;whiteSpace=wrap;html=1;fillColor=#4D4D4D;" vertex="1" parent="1"><mxGeometry x="91" y="-102" width="60" height="51" as="geometry"/></mxCell><mxCell id="14" value="21" style="rounded=1;whiteSpace=wrap;html=1;fillColor=#4D4D4D;" vertex="1" parent="1"><mxGeometry x="342" width="60" height="51" as="geometry"/></mxCell><mxCell id="15" value="45" style="rounded=1;whiteSpace=wrap;html=1;fillColor=#4D4D4D;" vertex="1" parent="1"><mxGeometry x="235" width="60" height="51" as="geometry"/></mxCell><mxCell id="17" value="50" style="rounded=1;whiteSpace=wrap;html=1;fillColor=#4D4D4D;" vertex="1" parent="1"><mxGeometry x="39" y="3" width="60" height="51" as="geometry"/></mxCell><mxCell id="18" value="85" style="rounded=1;whiteSpace=wrap;html=1;fillColor=#4D4D4D;" vertex="1" parent="1"><mxGeometry x="606" y="-173" width="60" height="51" as="geometry"/></mxCell><mxCell id="19" value="17" style="rounded=1;whiteSpace=wrap;html=1;fillColor=#4D4D4D;" vertex="1" parent="1"><mxGeometry x="707" y="-107" width="60" height="51" as="geometry"/></mxCell><mxCell id="20" value="" style="endArrow=classic;html=1;rounded=0;exitX=0;exitY=0.5;exitDx=0;exitDy=0;" edge="1" parent="1" source="5" target="11"><mxGeometry width="50" height="50" relative="1" as="geometry"><mxPoint x="241" y="-241" as="sourcePoint"/><mxPoint x="291" y="-291" as="targetPoint"/></mxGeometry></mxCell><mxCell id="21" value="" style="endArrow=classic;html=1;rounded=0;exitX=1;exitY=0.75;exitDx=0;exitDy=0;entryX=0.25;entryY=0;entryDx=0;entryDy=0;" edge="1" parent="1" source="11" target="12"><mxGeometry width="50" height="50" relative="1" as="geometry"><mxPoint x="307" y="176" as="sourcePoint"/><mxPoint x="357" y="126" as="targetPoint"/></mxGeometry></mxCell><mxCell id="22" value="" style="endArrow=classic;html=1;rounded=0;exitX=0;exitY=0.75;exitDx=0;exitDy=0;entryX=0.75;entryY=0;entryDx=0;entryDy=0;" edge="1" parent="1" source="11" target="13"><mxGeometry width="50" height="50" relative="1" as="geometry"><mxPoint x="294" y="139" as="sourcePoint"/><mxPoint x="344" y="89" as="targetPoint"/></mxGeometry></mxCell><mxCell id="23" value="" style="endArrow=classic;html=1;rounded=0;exitX=1;exitY=0.5;exitDx=0;exitDy=0;" edge="1" parent="1" source="5"><mxGeometry width="50" height="50" relative="1" as="geometry"><mxPoint x="228" y="147" as="sourcePoint"/><mxPoint x="638" y="-174" as="targetPoint"/></mxGeometry></mxCell><mxCell id="24" value="" style="endArrow=classic;html=1;rounded=0;exitX=0;exitY=1;exitDx=0;exitDy=0;entryX=0.75;entryY=0;entryDx=0;entryDy=0;" edge="1" parent="1" source="13" target="17"><mxGeometry width="50" height="50" relative="1" as="geometry"><mxPoint x="83" y="170" as="sourcePoint"/><mxPoint x="133" y="120" as="targetPoint"/></mxGeometry></mxCell><mxCell id="25" value="" style="endArrow=classic;html=1;rounded=0;exitX=0.75;exitY=1;exitDx=0;exitDy=0;entryX=0.25;entryY=0;entryDx=0;entryDy=0;" edge="1" parent="1" source="13" target="34"><mxGeometry width="50" height="50" relative="1" as="geometry"><mxPoint x="194" y="165" as="sourcePoint"/><mxPoint x="244" y="115" as="targetPoint"/></mxGeometry></mxCell><mxCell id="26" value="" style="endArrow=classic;html=1;rounded=0;exitX=1;exitY=0.75;exitDx=0;exitDy=0;entryX=0.5;entryY=0;entryDx=0;entryDy=0;" edge="1" parent="1" source="18" target="19"><mxGeometry width="50" height="50" relative="1" as="geometry"><mxPoint x="346" y="149" as="sourcePoint"/><mxPoint x="396" y="99" as="targetPoint"/></mxGeometry></mxCell><mxCell id="27" value="" style="endArrow=classic;html=1;rounded=0;entryX=1;entryY=0;entryDx=0;entryDy=0;" edge="1" parent="1" target="8"><mxGeometry width="50" height="50" relative="1" as="geometry"><mxPoint x="608" y="-131" as="sourcePoint"/><mxPoint x="574" y="87" as="targetPoint"/></mxGeometry></mxCell><mxCell id="28" value="" style="endArrow=classic;html=1;rounded=0;exitX=0;exitY=1;exitDx=0;exitDy=0;entryX=0.5;entryY=0;entryDx=0;entryDy=0;" edge="1" parent="1" source="8" target="10"><mxGeometry width="50" height="50" relative="1" as="geometry"><mxPoint x="417" y="154" as="sourcePoint"/><mxPoint x="467" y="104" as="targetPoint"/></mxGeometry></mxCell><mxCell id="29" value="" style="endArrow=classic;html=1;rounded=0;exitX=0;exitY=1;exitDx=0;exitDy=0;entryX=0.373;entryY=0.024;entryDx=0;entryDy=0;entryPerimeter=0;" edge="1" parent="1" source="19" target="7"><mxGeometry width="50" height="50" relative="1" as="geometry"><mxPoint x="575" y="151" as="sourcePoint"/><mxPoint x="694" y="3" as="targetPoint"/></mxGeometry></mxCell><mxCell id="30" value="" style="endArrow=classic;html=1;rounded=0;exitX=1;exitY=1;exitDx=0;exitDy=0;entryX=0.5;entryY=0;entryDx=0;entryDy=0;" edge="1" parent="1" source="19" target="6"><mxGeometry width="50" height="50" relative="1" as="geometry"><mxPoint x="568" y="140" as="sourcePoint"/><mxPoint x="618" y="90" as="targetPoint"/></mxGeometry></mxCell><mxCell id="31" value="" style="endArrow=classic;html=1;rounded=0;exitX=1;exitY=1;exitDx=0;exitDy=0;entryX=0.5;entryY=0;entryDx=0;entryDy=0;" edge="1" parent="1" source="8" target="9"><mxGeometry width="50" height="50" relative="1" as="geometry"><mxPoint x="443" y="120" as="sourcePoint"/><mxPoint x="493" y="70" as="targetPoint"/></mxGeometry></mxCell><mxCell id="34" value="40" style="rounded=1;whiteSpace=wrap;html=1;fillColor=#4D4D4D;" vertex="1" parent="1"><mxGeometry x="145" width="60" height="51" as="geometry"/></mxCell><mxCell id="35" value="" style="endArrow=classic;html=1;rounded=0;entryX=0.25;entryY=0;entryDx=0;entryDy=0;exitX=0.647;exitY=0.984;exitDx=0;exitDy=0;exitPerimeter=0;" edge="1" parent="1" source="12" target="14"><mxGeometry width="50" height="50" relative="1" as="geometry"><mxPoint x="334" y="-50" as="sourcePoint"/><mxPoint x="412" y="-105" as="targetPoint"/></mxGeometry></mxCell><mxCell id="36" value="" style="endArrow=classic;html=1;rounded=0;exitX=0.25;exitY=1;exitDx=0;exitDy=0;entryX=0.5;entryY=0;entryDx=0;entryDy=0;" edge="1" parent="1" source="12" target="15"><mxGeometry width="50" height="50" relative="1" as="geometry"><mxPoint x="362" y="-55" as="sourcePoint"/><mxPoint x="412" y="-105" as="targetPoint"/></mxGeometry></mxCell></root></mxGraphModel></diagram></mxfile>